# xmcd
#
# Track frame offsets:
#	150
#	13087
#	28688
#	41970
#	55506
#	75648
#	90945
#	105270
#	119295
#	132352
#	145853
#	160222
#	176608
#	194815
#	216767
#	231978
#	253762
#	272345
#	285813
#	302978
#	318052
#	336502
#
# Disc length: 4698 seconds
#
# Revision: 0
# Processed by: cddbd v1.5.2PL0 Copyright (c) Steve Scherf et al.
# Submitted via: EasyCDDAExtractor 16.0.6.1
#
DISCID=31125816
DTITLE=Συλλογικός δίσκος - Το νησιώτικο τραγούδι είναι εδώ 3
DYEAR=1900
DGENRE=Παραδοσιακή
TTITLE0=Καμπίτσης Δημήτρης - Η τράτα
TTITLE1=Καμπίτσης Δημήτρης - Τη θάλασσα τη γαλανή
TTITLE2=Καμπίτσης Δημήτρης - Να σ' αγαπώ είντα 'θελα
TTITLE3=Καμπίτσης Δημήτρης - Μηχανικός
TTITLE4=Καμπίτσης Δημήτρης - Ντάρι, ντάρι
TTITLE5=Καμπίτσης Δημήτρης - Έρι, έρι
TTITLE6=Καμπίτσης Δημήτρης - Σάλα, σάλα
TTITLE7=Καμπίτσης Δημήτρης - Καλέ συ Παναγιά μου
TTITLE8=Καμπίτσης Δημήτρης - Θαλασσάκι μου
TTITLE9=Καμπίτσης Δημήτρης - Σαμιώτισσα
TTITLE10=Καμπίτσης Δημήτρης - Αρμενάκι-Λουλούδι του μπαξέ
TTITLE11=Καμπίτσης Δημήτρης - Μπρατσέρα
TTITLE12=Γιαννούλης Ματθαίος - Ο σκοπός των Χαλκηδώ
TTITLE13=Γιαννούλης Ματθαίος - Κοτσάτος
TTITLE14=Γιαννούλης Ματθαίος - Στο χωριό μας κάθε χρόνο
TTITLE15=Γιαννούλης Ματθαίος - Αμοργιανό
TTITLE16=Γιαννούλης Ματθαίος - Κρητικές μαντινάδες
TTITLE17=Γιαννούλης Ματθαίος - Τσαμπούνα
TTITLE18=Γιαννούλης Ματθαίος - Σάλα, γυάλα
TTITLE19=Γιαννούλης Ματθαίος - Αρτεμώνας
TTITLE20=Παπαδάκης Σταμάτης - Μεσ' στου Αιγαίου
TTITLE21=Παπαδάκης Σταμάτης - Η τράτα
EXTD=
EXTT0=
EXTT1=
EXTT2=
EXTT3=
EXTT4=
EXTT5=
EXTT6=
EXTT7=
EXTT8=
EXTT9=
EXTT10=
EXTT11=
EXTT12=
EXTT13=
EXTT14=
EXTT15=
EXTT16=
EXTT17=
EXTT18=
EXTT19=
EXTT20=
EXTT21=
PLAYORDER=
